# xmcd CD database file
#
# Track frame offsets:
#	150
#	16345
#	35912
#	59885
#	77950
#	101262
#	122867
#	140670
#	161625
#	181100
#
# Disc length: 2687 seconds
#
# Revision: 3
# Processed by: cddbd v1.5.2PL0 Copyright (c) Steve Scherf et al.
# Submitted via: CDex 1.70beta2
#
DISCID=8c0a7d0a
DTITLE=The Uptown Horns Revue - The Uptown Horns Revue
DYEAR=1994
DGENRE=Jazz
TTITLE0=Sugar Melts When It's Wet
TTITLE1=Never Goin Down That Road Again
TTITLE2=Imaginary People
TTITLE3=Tell Me What You Want
TTITLE4=Trust Me
TTITLE5=You Don't Realize
TTITLE6=Marylou's
TTITLE7=I'm Dealin'
TTITLE8=Open the Door to Your Heart
TTITLE9=Odds Are Good That The Goods Are Odd
EXTD=YEAR: 1994
EXTT0=
EXTT1=
EXTT2=
EXTT3=
EXTT4=
EXTT5=
EXTT6=
EXTT7=
EXTT8=
EXTT9=
PLAYORDER=
